<?xml version="1.0" encoding="UTF-8"?><svg id="uuid-543abf63-130d-4f26-9d1c-16e2372b32b8" xmlns="http://www.w3.org/2000/svg" xmlns:xlink="http://www.w3.org/1999/xlink" viewBox="0 0 41.82 41.82"><defs><radialGradient id="uuid-88f4c805-653a-47ed-bb9a-33f0cbaee425" cx="20.43" cy="19.93" fx="20.43" fy="19.93" r="19.57" gradientUnits="userSpaceOnUse"><stop offset="0" stop-color="#ffe076"/><stop offset="1" stop-color="#ffd800"/></radialGradient><linearGradient id="uuid-1a5d75d0-f089-45be-b3eb-31bd4c2db7b9" x1="29.46" y1="37.68" x2="29.46" y2="18.42" gradientUnits="userSpaceOnUse"><stop offset="0" stop-color="#f2631c"/><stop offset="1" stop-color="#f4a819"/></linearGradient><linearGradient id="uuid-5c2eccc6-e247-4c79-be1f-0c41e7188e53" x1="26.27" y1="39.49" x2="26.27" y2="20.16" gradientUnits="userSpaceOnUse"><stop offset="0" stop-color="#c40661"/><stop offset="1" stop-color="#e50a6d"/></linearGradient><linearGradient id="uuid-82e586e4-a4fe-4d55-a801-63a4890d429b" x1="22.91" y1="40.64" x2="22.91" y2="21.89" gradientUnits="userSpaceOnUse"><stop offset="0" stop-color="#025dbf"/><stop offset="1" stop-color="#0090d5"/></linearGradient><linearGradient id="uuid-2b912b74-0b6f-470a-a5ff-1c17b370eada" x1="506.46" y1="204.89" x2="506.46" y2="203.27" gradientTransform="translate(561.01 -39.52) rotate(152.53)" xlink:href="#uuid-82e586e4-a4fe-4d55-a801-63a4890d429b"/></defs><path d="M40,19.93c0,4.5-1.52,8.64-4.07,11.95-.67.87-1.42,1.69-2.23,2.44-.05.05-.1.09-.15.14-.11.1-.23.21-.35.31-.04.04-.08.07-.12.11-.02.02-.04.04-.06.06-.05.05-.11.09-.16.14-.54.45-1.11.87-1.7,1.25-.17.11-.34.22-.51.32-.02.01-.04.02-.06.04-.04.02-.07.04-.11.07-.07.04-.14.08-.21.12-.01,0-.02.01-.04.02-.16.09-.32.18-.49.27-.04.02-.08.04-.12.07-.05.03-.1.05-.15.08-.08.04-.15.08-.23.12-.53.27-1.07.51-1.63.73-.19.07-.37.14-.56.21,0,0-.02,0-.02,0-.13.05-.26.09-.39.13-.05.02-.1.03-.16.05-.08.03-.16.05-.25.08-.06.02-.11.03-.17.05-.03,0-.06.02-.09.03-.19.06-.39.11-.58.16-.54.14-1.1.26-1.66.36-.2.03-.41.07-.61.09-.03,0-.06,0-.08.01-.29.04-.58.07-.87.1-.57.05-1.15.08-1.74.08C9.62,39.5.85,30.74.85,19.93S9.62.36,20.43.36s19.57,8.76,19.57,19.57Z" fill="url(#uuid-88f4c805-653a-47ed-bb9a-33f0cbaee425)" stroke-width="0"/><path d="M35.21,35.91s-.08.07-.12.11c-.11.1-.23.21-.35.31-.04.04-.08.07-.12.11-.02.02-.04.04-.06.06-.05.05-.11.09-.16.14-.45.37-.92.72-1.4,1.05l-1.01-1.94-8.21-15.79c-.11-.22-.03-.48.19-.59l1.69-.88c.22-.11.48-.03.59.19l7.91,15.22,1,1.92.06.11Z" fill="url(#uuid-1a5d75d0-f089-45be-b3eb-31bd4c2db7b9)" stroke-width="0"/><path d="M32.16,38.21s-.03.02-.04.03c-.04.02-.07.04-.11.07-.07.04-.14.08-.21.12-.01,0-.02.01-.04.02-.16.09-.32.18-.49.27-.04.02-.08.04-.12.07-.05.03-.1.05-.15.08-.08.04-.15.08-.23.12-.36.18-.72.35-1.09.51l-.95-1.83-8.31-15.98c-.11-.22-.03-.48.19-.59l1.69-.88c.22-.11.48-.03.59.19l8.27,15.9.99,1.91Z" fill="url(#uuid-5c2eccc6-e247-4c79-be1f-0c41e7188e53)" stroke-width="0"/><path d="M28.78,39.85c-.06.02-.13.05-.19.07,0,0-.02,0-.02,0-.13.05-.26.09-.39.13-.05.02-.1.03-.16.05-.08.03-.16.05-.25.08-.06.02-.11.03-.17.05-.03,0-.06.02-.09.03-.19.06-.39.11-.58.16-.29.08-.59.15-.88.21l-.89-1.72-8.06-15.51c-.11-.22-.03-.48.19-.59l1.69-.88c.22-.11.48-.03.59.19l8.28,15.92.94,1.8Z" fill="url(#uuid-82e586e4-a4fe-4d55-a801-63a4890d429b)" stroke-width="0"/><path d="M17.5,20.86l.2-.11c.8-.42,1.79-.1,2.21.7-.42-.8-.1-1.79.7-2.21l.2-.11c.8-.42,1.79-.1,2.21.7-.42-.8-.1-1.79.7-2.21l.2-.11c.39-.2.82-.23,1.22-.12l-2.62-1.67-5.39-3.44-.28,6.39-.14,3.11c.13-.39.4-.72.79-.93Z" fill="#d8bda4" stroke-width="0"/><path d="M17.88,13.72c.27-.14.53-.3.77-.47l-1.51-.96-.08,1.79c.27-.09.55-.21.83-.35Z" fill="url(#uuid-2b912b74-0b6f-470a-a5ff-1c17b370eada)" stroke-width="0"/></svg>