<?xml version="1.0" encoding="UTF-8"?><svg id="uuid-ec556668-666a-49ea-8f45-7f3bc0395e78" xmlns="http://www.w3.org/2000/svg" xmlns:xlink="http://www.w3.org/1999/xlink" viewBox="0 0 170 42"><defs><radialGradient id="uuid-94a1513e-fb7c-47cc-a86c-25d02b205671" cx="18.84" cy="21.2" fx="18.84" fy="21.2" r="18.55" gradientUnits="userSpaceOnUse"><stop offset="0" stop-color="#ffe076"/><stop offset="1" stop-color="#ffd800"/></radialGradient><linearGradient id="uuid-dcac199c-39c6-4292-8cb7-a31093e6d374" x1="27.41" y1="38.03" x2="27.41" y2="19.78" gradientUnits="userSpaceOnUse"><stop offset="0" stop-color="#f2631c"/><stop offset="1" stop-color="#f4a819"/></linearGradient><linearGradient id="uuid-b446a466-08d3-4aa4-95bd-001504bde39d" x1="24.38" y1="39.74" x2="24.38" y2="21.42" gradientUnits="userSpaceOnUse"><stop offset="0" stop-color="#c40661"/><stop offset="1" stop-color="#e50a6d"/></linearGradient><linearGradient id="uuid-c4e711ff-f0f4-4bbf-b6ba-f41a51dd8f90" x1="21.2" y1="40.84" x2="21.2" y2="23.06" gradientUnits="userSpaceOnUse"><stop offset="0" stop-color="#025dbf"/><stop offset="1" stop-color="#0090d5"/></linearGradient><linearGradient id="uuid-64a4905d-72b7-4dd1-9cf3-79da7147c945" x1="629.27" y1="233.58" x2="629.27" y2="232.04" gradientTransform="translate(681.79 -69.04) rotate(152.53)" xlink:href="#uuid-c4e711ff-f0f4-4bbf-b6ba-f41a51dd8f90"/></defs><path d="M40.9,20.1c0-4.55,3-8.41,8.06-8.41,4.44,0,7.09,2.73,7.69,6.19h-4.02c-.48-1.36-1.5-2.73-3.63-2.73-2.59,0-4.14,2.24-4.14,4.94s1.55,4.94,4.14,4.94c2.13,0,3.14-1.36,3.63-2.73h4.02c-.6,3.47-3.26,6.19-7.69,6.19-5.06,0-8.06-3.86-8.06-8.41Z" fill="#ffc200" stroke-width="0"/><path d="M58.27,22.14c0-3.56,2.61-6.33,6.42-6.33s6.42,2.77,6.42,6.33-2.61,6.33-6.42,6.33-6.42-2.77-6.42-6.33ZM67.28,22.14c0-1.55-.88-3.14-2.59-3.14s-2.59,1.59-2.59,3.14.88,3.14,2.59,3.14,2.59-1.59,2.59-3.14Z" fill="#ffc200" stroke-width="0"/><path d="M72.92,16.08h3.88v6.93c0,1.18.46,2.15,1.71,2.15s1.8-.81,1.8-2.12v-6.95h3.88v12.11h-3.72v-1.73c-.53,1.2-1.57,2.01-3.33,2.01-2.89,0-4.23-2.01-4.23-4.99v-7.39Z" fill="#ffc200" stroke-width="0"/><path d="M86.74,16.08h3.77v1.73c.53-1.2,1.55-2.01,3.3-2.01,2.89,0,4.27,2.01,4.27,4.99v7.39h-3.88v-6.91c0-1.18-.51-2.15-1.76-2.15s-1.83.81-1.83,2.12v6.93h-3.88v-12.11Z" fill="#ffc200" stroke-width="0"/><path d="M101.22,23.87v-4.69h-1.76v-3.1h1.76v-3.19h3.88v3.19h2.56v3.1h-2.56v4.5c0,.92.46,1.43,1.39,1.43.53,0,.95-.09,1.2-.19v3.1c-.53.21-1.46.32-2.42.32-2.66,0-4.04-1.5-4.04-4.48Z" fill="#ffc200" stroke-width="0"/><path d="M113.07,12.02l1.85,9.77,2.86-9.77h3.93l2.86,9.77,1.85-9.77h4.34l-4.09,16.17h-3.83l-3.1-11.34-3.1,11.34h-3.83l-4.09-16.17h4.34Z" fill="#ffc200" stroke-width="0"/><path d="M136.38,20.82l2.45-.21v-.51c0-.85-.53-1.46-1.64-1.46s-1.71.58-1.8,1.34h-3.67c.37-2.52,2.45-4.18,5.5-4.18,3.51,0,5.5,1.83,5.5,4.67v7.72h-3.77v-1.62c-.46,1.06-1.78,1.89-3.49,1.89-2.52,0-4.13-1.48-4.13-3.79,0-2.45,1.64-3.58,5.06-3.86ZM136.68,25.88c1.36,0,2.15-.79,2.15-2.17v-.67l-1.83.18c-1.11.12-1.92.39-1.92,1.32,0,.83.62,1.34,1.59,1.34Z" fill="#ffc200" stroke-width="0"/><path d="M143.8,16.08h3.95l2.43,7.58,2.43-7.58h3.95l-4.41,12.11h-3.93l-4.41-12.11Z" fill="#ffc200" stroke-width="0"/><path d="M163.3,15.81c3.93,0,6.01,2.77,6.01,6.42v.74h-8.5c.12,1.48,1.06,2.56,2.61,2.56,1.29,0,1.99-.58,2.31-1.29h3.49c-.53,2.47-2.82,4.23-5.75,4.23-4.02,0-6.38-2.7-6.38-6.33s2.5-6.33,6.21-6.33ZM165.63,20.54c-.18-1.22-1.06-2.06-2.33-2.06s-2.15.85-2.43,2.06h4.76Z" fill="#ffc200" stroke-width="0"/><path d="M37.4,21.2c0,4.26-1.44,8.19-3.86,11.33-.64.83-1.35,1.6-2.12,2.31-.05.04-.1.09-.14.13-.11.1-.22.2-.33.29-.04.03-.08.07-.12.1-.02.02-.04.03-.06.05-.05.04-.1.09-.16.13-.52.42-1.05.82-1.61,1.19-.16.11-.32.21-.48.31-.02.01-.04.02-.06.03-.03.02-.07.04-.1.06-.06.04-.13.08-.2.12-.01,0-.02.01-.04.02-.15.09-.31.17-.46.26-.04.02-.08.04-.12.06-.05.03-.1.05-.14.08-.07.04-.14.07-.21.11-.5.25-1.02.49-1.55.69-.18.07-.35.14-.53.2,0,0-.02,0-.02,0-.12.04-.24.09-.37.13-.05.02-.1.03-.15.05-.08.03-.16.05-.23.07-.05.02-.11.03-.16.05-.03,0-.06.02-.09.03-.18.05-.37.1-.55.15-.52.13-1.04.25-1.57.34-.19.03-.39.06-.58.09-.03,0-.05,0-.08.01-.27.04-.55.07-.83.09-.54.05-1.09.07-1.64.07C8.6,39.76.29,31.45.29,21.2S8.6,2.65,18.84,2.65s18.55,8.31,18.55,18.55Z" fill="url(#uuid-94a1513e-fb7c-47cc-a86c-25d02b205671)" stroke-width="0"/><path d="M32.85,36.35s-.08.07-.11.1c-.11.1-.22.2-.33.29-.04.03-.08.07-.12.1-.02.02-.04.03-.06.05-.05.04-.1.09-.16.13-.43.35-.87.69-1.33,1l-.96-1.84-7.78-14.97c-.11-.2-.03-.46.18-.56l1.6-.83c.2-.11.46-.03.56.18l7.5,14.43.94,1.82.06.11Z" fill="url(#uuid-dcac199c-39c6-4292-8cb7-a31093e6d374)" stroke-width="0"/><path d="M29.97,38.53s-.03.02-.04.03c-.03.02-.07.04-.1.06-.06.04-.13.08-.2.12-.01,0-.02.01-.04.02-.15.09-.31.17-.46.26-.04.02-.08.04-.12.06-.05.03-.1.05-.14.08-.07.04-.14.07-.21.11-.34.17-.68.33-1.03.48l-.9-1.74-7.87-15.14c-.11-.2-.03-.46.18-.56l1.6-.83c.2-.11.46-.03.56.18l7.83,15.07.94,1.81Z" fill="url(#uuid-b446a466-08d3-4aa4-95bd-001504bde39d)" stroke-width="0"/><path d="M26.76,40.09c-.06.02-.12.04-.18.07,0,0-.02,0-.02,0-.12.04-.24.09-.37.13-.05.02-.1.03-.15.05-.08.03-.16.05-.23.07-.05.02-.11.03-.16.05-.03,0-.06.02-.09.03-.18.05-.37.1-.55.15-.28.07-.56.14-.84.2l-.85-1.63-7.64-14.7c-.11-.2-.03-.46.18-.56l1.6-.83c.2-.11.46-.03.56.18l7.84,15.09.89,1.71Z" fill="url(#uuid-c4e711ff-f0f4-4bbf-b6ba-f41a51dd8f90)" stroke-width="0"/><path d="M16.07,22.08l.19-.1c.76-.4,1.7-.1,2.09.66-.4-.76-.1-1.7.66-2.09l.19-.1c.76-.4,1.7-.1,2.09.66-.4-.76-.1-1.7.66-2.09l.19-.1c.37-.19.78-.22,1.15-.11l-2.48-1.58-5.11-3.26-.27,6.06-.13,2.94c.12-.37.38-.69.75-.88Z" fill="#d8bda4" stroke-width="0"/><path d="M16.43,15.32c.26-.14.5-.29.73-.45l-1.43-.91-.08,1.7c.26-.09.52-.2.78-.34Z" fill="url(#uuid-64a4905d-72b7-4dd1-9cf3-79da7147c945)" stroke-width="0"/></svg>