<svg width="170" height="42" viewBox="0 0 170 42" fill="none" xmlns="http://www.w3.org/2000/svg">
<g clip-path="url(#clip0_1_2)">
<path d="M51.2775 29.8232H63.2295V26.2232H55.5255V12.6632H51.2775V29.8232Z" fill="#CFAE29"/>
<path d="M70.3106 27.4232C68.6066 27.4232 67.7186 25.9352 67.7186 23.7032C67.7186 21.4712 68.6066 19.9592 70.3106 19.9592C72.0146 19.9592 72.9266 21.4712 72.9266 23.7032C72.9266 25.9352 72.0146 27.4232 70.3106 27.4232ZM70.3346 30.2072C74.2946 30.2072 76.8866 27.3992 76.8866 23.7032C76.8866 20.0072 74.2946 17.1992 70.3346 17.1992C66.3986 17.1992 63.7586 20.0072 63.7586 23.7032C63.7586 27.3992 66.3986 30.2072 70.3346 30.2072Z" fill="#CFAE29"/>
<path d="M83.741 34.0712C85.565 34.0712 87.173 33.6632 88.253 32.7032C89.237 31.8152 89.885 30.4712 89.885 28.6232V17.5352H86.141V18.8552H86.093C85.373 17.8232 84.269 17.1752 82.637 17.1752C79.589 17.1752 77.477 19.7192 77.477 23.3192C77.477 27.0872 80.045 29.1512 82.805 29.1512C84.293 29.1512 85.229 28.5512 85.949 27.7352H86.045V28.9592C86.045 30.4472 85.349 31.3112 83.693 31.3112C82.397 31.3112 81.749 30.7592 81.533 30.1112H77.741C78.125 32.6792 80.357 34.0712 83.741 34.0712ZM83.717 26.2472C82.253 26.2472 81.293 25.0472 81.293 23.1992C81.293 21.3272 82.253 20.1272 83.717 20.1272C85.349 20.1272 86.213 21.5192 86.213 23.1752C86.213 24.9032 85.421 26.2472 83.717 26.2472Z" fill="#CFAE29"/>
<path d="M97.5834 27.4232C95.8794 27.4232 94.9914 25.9352 94.9914 23.7032C94.9914 21.4712 95.8794 19.9592 97.5834 19.9592C99.2874 19.9592 100.199 21.4712 100.199 23.7032C100.199 25.9352 99.2874 27.4232 97.5834 27.4232ZM97.6074 30.2072C101.567 30.2072 104.159 27.3992 104.159 23.7032C104.159 20.0072 101.567 17.1992 97.6074 17.1992C93.6714 17.1992 91.0314 20.0072 91.0314 23.7032C91.0314 27.3992 93.6714 30.2072 97.6074 30.2072Z" fill="#CFAE29"/>
<path d="M105.302 29.8232H109.214V17.5352H105.302V29.8232ZM105.302 15.8312H109.214V12.6632H105.302V15.8312Z" fill="#CFAE29"/>
<path d="M110.911 33.8792H114.823V28.5512H114.871C115.639 29.5832 116.767 30.2072 118.351 30.2072C121.567 30.2072 123.703 27.6632 123.703 23.6792C123.703 19.9832 121.711 17.1752 118.447 17.1752C116.767 17.1752 115.567 17.9192 114.727 19.0232H114.655V17.5352H110.911V33.8792ZM117.343 27.1832C115.663 27.1832 114.703 25.8152 114.703 23.8232C114.703 21.8312 115.567 20.3192 117.271 20.3192C118.951 20.3192 119.743 21.7112 119.743 23.8232C119.743 25.9112 118.831 27.1832 117.343 27.1832Z" fill="#CFAE29"/>
<path d="M130.072 30.2072C133.288 30.2072 135.664 28.8152 135.664 26.1272C135.664 22.9832 133.12 22.4312 130.96 22.0712C129.4 21.7832 128.008 21.6632 128.008 20.7992C128.008 20.0312 128.752 19.6712 129.712 19.6712C130.792 19.6712 131.536 20.0072 131.68 21.1112H135.28C135.088 18.6872 133.216 17.1752 129.736 17.1752C126.832 17.1752 124.432 18.5192 124.432 21.1112C124.432 23.9912 126.712 24.5672 128.848 24.9272C130.48 25.2152 131.968 25.3352 131.968 26.4392C131.968 27.2312 131.224 27.6632 130.048 27.6632C128.752 27.6632 127.936 27.0632 127.792 25.8392H124.096C124.216 28.5512 126.472 30.2072 130.072 30.2072Z" fill="#CFAE29"/>
<path d="M140.978 30.1832C142.682 30.1832 143.762 29.5112 144.65 28.3112H144.722V29.8232H148.466V17.5352H144.554V24.3992C144.554 25.8632 143.738 26.8712 142.394 26.8712C141.146 26.8712 140.546 26.1272 140.546 24.7832V17.5352H136.658V25.5992C136.658 28.3352 138.146 30.1832 140.978 30.1832Z" fill="#CFAE29"/>
<path d="M150.168 29.8232H154.08V22.9352C154.08 21.4712 154.8 20.4392 156.024 20.4392C157.2 20.4392 157.752 21.2072 157.752 22.5272V29.8232H161.664V22.9352C161.664 21.4712 162.36 20.4392 163.608 20.4392C164.784 20.4392 165.336 21.2072 165.336 22.5272V29.8232H169.248V21.8312C169.248 19.0712 167.856 17.1752 165.072 17.1752C163.488 17.1752 162.168 17.8472 161.208 19.3352H161.16C160.536 18.0152 159.312 17.1752 157.704 17.1752C155.928 17.1752 154.752 18.0152 153.984 19.2872H153.912V17.5352H150.168V29.8232Z" fill="#CFAE29"/>
<path fill-rule="evenodd" clip-rule="evenodd" d="M20.1014 40.8232C31.1472 40.8232 40.1014 31.8689 40.1014 20.8232C40.1014 9.77754 31.1472 0.823242 20.1014 0.823242C9.05573 0.823242 0.10144 9.77754 0.10144 20.8232C0.10144 31.8689 9.05573 40.8232 20.1014 40.8232ZM23.1884 16.2758C24.8932 14.5709 24.8932 11.8068 23.1884 10.1019C21.4835 8.39702 18.7194 8.39702 17.0145 10.1019C15.3097 11.8068 15.3097 14.5709 17.0145 16.2758L20.1014 19.3627L23.1884 16.2758ZM24.6489 23.9102C26.3538 25.6151 29.1179 25.6151 30.8228 23.9102C32.5276 22.2053 32.5276 19.4412 30.8228 17.7363C29.1179 16.0315 26.3538 16.0315 24.6489 17.7363L21.562 20.8233L24.6489 23.9102ZM23.1884 31.5446C24.8932 29.8397 24.8932 27.0756 23.1884 25.3707L20.1014 22.2838L17.0145 25.3707C15.3097 27.0756 15.3097 29.8397 17.0145 31.5446C18.7194 33.2495 21.4835 33.2495 23.1884 31.5446ZM9.38007 23.9102C7.67523 22.2053 7.67523 19.4412 9.38007 17.7363C11.085 16.0315 13.8491 16.0315 15.554 17.7363L18.6409 20.8233L15.554 23.9102C13.8491 25.6151 11.085 25.6151 9.38007 23.9102Z" fill="#FACC15"/>
</g>
<defs>
<clipPath id="clip0_1_2">
<rect width="170" height="41" fill="white" transform="translate(0 0.5)"/>
</clipPath>
</defs>
</svg>
