<?xml version="1.0" encoding="UTF-8"?><svg id="uuid-53697154-e1b1-4df0-9c89-e3becda383c6" xmlns="http://www.w3.org/2000/svg" xmlns:xlink="http://www.w3.org/1999/xlink" viewBox="0 0 170 42"><defs><radialGradient id="uuid-502e0685-1ab7-4390-bcbd-6e0900149be5" cx="18.15" cy="19.94" fx="18.15" fy="19.94" r="17.85" gradientUnits="userSpaceOnUse"><stop offset="0" stop-color="#ffe076"/><stop offset="1" stop-color="#ffd800"/></radialGradient><linearGradient id="uuid-31de8f61-0d68-42ab-b400-22901652e47c" x1="26.39" y1="36.13" x2="26.39" y2="18.57" gradientUnits="userSpaceOnUse"><stop offset="0" stop-color="#f2631c"/><stop offset="1" stop-color="#f4a819"/></linearGradient><linearGradient id="uuid-86bb9488-46d5-4851-978b-9bc54e4727c9" x1="23.48" y1="37.79" x2="23.48" y2="20.15" gradientUnits="userSpaceOnUse"><stop offset="0" stop-color="#c40661"/><stop offset="1" stop-color="#e50a6d"/></linearGradient><linearGradient id="uuid-c56554ee-bad4-4d02-a169-e52ccaaba2fe" x1="20.41" y1="38.84" x2="20.41" y2="21.73" gradientUnits="userSpaceOnUse"><stop offset="0" stop-color="#025dbf"/><stop offset="1" stop-color="#0090d5"/></linearGradient><linearGradient id="uuid-65c8d6a9-d19d-4f83-9050-0bea27533d25" x1="629.33" y1="234.72" x2="629.33" y2="233.24" gradientTransform="translate(681.79 -69.04) rotate(152.53)" xlink:href="#uuid-c56554ee-bad4-4d02-a169-e52ccaaba2fe"/></defs><path d="M47.26,19.89c0-4.29,2.83-7.93,7.6-7.93,4.18,0,6.69,2.57,7.26,5.84h-3.79c-.46-1.29-1.42-2.57-3.42-2.57-2.44,0-3.9,2.11-3.9,4.66s1.46,4.66,3.9,4.66c2,0,2.96-1.29,3.42-2.57h3.79c-.57,3.27-3.07,5.84-7.26,5.84-4.77,0-7.6-3.64-7.6-7.93Z" fill="#ffc200" stroke-width="0"/><path d="M63.64,21.81c0-3.36,2.46-5.97,6.06-5.97s6.06,2.61,6.06,5.97-2.46,5.97-6.06,5.97-6.06-2.62-6.06-5.97ZM72.14,21.81c0-1.46-.83-2.96-2.44-2.96s-2.44,1.5-2.44,2.96.83,2.96,2.44,2.96,2.44-1.5,2.44-2.96Z" fill="#ffc200" stroke-width="0"/><path d="M77.45,16.1h3.66v6.54c0,1.11.44,2.03,1.61,2.03s1.7-.76,1.7-2v-6.56h3.66v11.42h-3.51v-1.63c-.5,1.13-1.48,1.9-3.14,1.9-2.72,0-3.99-1.9-3.99-4.71v-6.97Z" fill="#ffc200" stroke-width="0"/><path d="M90.48,16.1h3.55v1.63c.5-1.13,1.46-1.9,3.12-1.9,2.72,0,4.03,1.9,4.03,4.71v6.97h-3.66v-6.51c0-1.11-.48-2.03-1.66-2.03s-1.72.76-1.72,2v6.54h-3.66v-11.42Z" fill="#ffc200" stroke-width="0"/><path d="M104.14,23.44v-4.42h-1.66v-2.92h1.66v-3.01h3.66v3.01h2.42v2.92h-2.42v4.25c0,.87.44,1.35,1.31,1.35.5,0,.89-.09,1.13-.17v2.92c-.5.2-1.37.3-2.29.3-2.51,0-3.81-1.42-3.81-4.23Z" fill="#ffc200" stroke-width="0"/><path d="M115.32,12.27l1.74,9.22,2.7-9.22h3.7l2.7,9.22,1.74-9.22h4.1l-3.86,15.25h-3.62l-2.92-10.7-2.92,10.7h-3.62l-3.86-15.25h4.1Z" fill="#ffc200" stroke-width="0"/><path d="M137.3,20.57l2.31-.2v-.48c0-.81-.5-1.37-1.55-1.37s-1.61.54-1.7,1.26h-3.46c.35-2.38,2.31-3.94,5.19-3.94,3.31,0,5.19,1.72,5.19,4.4v7.28h-3.55v-1.53c-.44,1-1.68,1.79-3.29,1.79-2.38,0-3.9-1.39-3.9-3.57,0-2.31,1.55-3.38,4.77-3.64ZM137.58,25.34c1.29,0,2.03-.74,2.03-2.05v-.63l-1.72.17c-1.05.11-1.81.37-1.81,1.24,0,.78.59,1.26,1.5,1.26Z" fill="#ffc200" stroke-width="0"/><path d="M144.29,16.1h3.73l2.29,7.15,2.29-7.15h3.73l-4.16,11.42h-3.7l-4.16-11.42Z" fill="#ffc200" stroke-width="0"/><path d="M162.68,15.84c3.7,0,5.67,2.61,5.67,6.06v.7h-8.02c.11,1.39,1,2.42,2.46,2.42,1.22,0,1.87-.54,2.18-1.22h3.29c-.5,2.33-2.66,3.99-5.43,3.99-3.79,0-6.01-2.55-6.01-5.97s2.35-5.97,5.86-5.97ZM164.88,20.31c-.17-1.15-1-1.94-2.2-1.94s-2.03.81-2.29,1.94h4.49Z" fill="#ffc200" stroke-width="0"/><path d="M36,19.94c0,4.1-1.38,7.88-3.71,10.9-.62.8-1.3,1.54-2.04,2.22-.05.04-.09.08-.14.13-.1.09-.21.19-.32.28-.04.03-.08.07-.11.1-.02.02-.04.03-.06.05-.05.04-.1.08-.15.12-.5.41-1.01.79-1.55,1.14-.15.1-.31.2-.47.29-.02.01-.04.02-.05.03-.03.02-.07.04-.1.06-.06.04-.13.08-.19.11-.01,0-.02.01-.03.02-.15.08-.29.17-.44.25-.04.02-.07.04-.11.06-.05.02-.09.05-.14.07-.07.04-.14.07-.21.11-.48.24-.98.47-1.49.67-.17.07-.34.13-.51.19,0,0-.01,0-.02,0-.12.04-.24.08-.35.12-.05.02-.1.03-.14.05-.07.02-.15.05-.23.07-.05.02-.1.03-.15.05-.03,0-.05.02-.08.02-.18.05-.35.1-.53.15-.5.13-1,.24-1.51.32-.18.03-.37.06-.56.09-.03,0-.05,0-.08.01-.26.04-.53.06-.8.09-.52.05-1.05.07-1.58.07C8.28,37.8.29,29.8.29,19.94S8.28,2.09,18.15,2.09s17.85,7.99,17.85,17.85Z" fill="url(#uuid-502e0685-1ab7-4390-bcbd-6e0900149be5)" stroke-width="0"/><path d="M31.63,34.52s-.07.07-.11.1c-.1.09-.21.19-.32.28-.04.03-.08.07-.11.1-.02.02-.04.03-.06.05-.05.04-.1.08-.15.12-.41.34-.84.66-1.28.96l-.92-1.77-7.49-14.4c-.1-.2-.03-.44.17-.54l1.54-.8c.2-.1.44-.03.54.17l7.22,13.89.91,1.75.05.1Z" fill="url(#uuid-31de8f61-0d68-42ab-b400-22901652e47c)" stroke-width="0"/><path d="M28.85,36.62s-.03.02-.04.03c-.03.02-.07.04-.1.06-.06.04-.13.08-.19.11-.01,0-.02.01-.03.02-.15.08-.29.17-.44.25-.04.02-.07.04-.11.06-.05.02-.09.05-.14.07-.07.04-.14.07-.21.11-.33.17-.66.32-1,.47l-.87-1.67-7.58-14.57c-.1-.2-.03-.44.17-.54l1.54-.8c.2-.1.44-.03.54.17l7.54,14.5.91,1.75Z" fill="url(#uuid-86bb9488-46d5-4851-978b-9bc54e4727c9)" stroke-width="0"/><path d="M25.76,38.12c-.06.02-.12.04-.17.06,0,0-.01,0-.02,0-.12.04-.24.08-.35.12-.05.02-.1.03-.14.05-.07.02-.15.05-.23.07-.05.02-.1.03-.15.05-.03,0-.05.02-.08.02-.18.05-.35.1-.53.15-.27.07-.53.13-.81.19l-.81-1.57-7.36-14.15c-.1-.2-.03-.44.17-.54l1.54-.8c.2-.1.44-.03.54.17l7.55,14.52.85,1.64Z" fill="url(#uuid-c56554ee-bad4-4d02-a169-e52ccaaba2fe)" stroke-width="0"/><path d="M15.48,20.79l.19-.1c.73-.38,1.63-.1,2.01.64-.38-.73-.1-1.63.64-2.01l.19-.1c.73-.38,1.63-.1,2.01.64-.38-.73-.1-1.63.64-2.01l.19-.1c.36-.19.75-.21,1.11-.11l-2.39-1.53-4.92-3.14-.26,5.83-.13,2.83c.12-.35.37-.66.72-.85Z" fill="#d8bda4" stroke-width="0"/><path d="M15.82,14.28c.25-.13.48-.28.7-.43l-1.38-.88-.07,1.63c.25-.09.5-.19.75-.32Z" fill="url(#uuid-65c8d6a9-d19d-4f83-9050-0bea27533d25)" stroke-width="0"/></svg>